# xmcd
#
# Track frame offsets: 
#        150
#        11208
#        23090
#        35144
#        47105
#        59797
#        69560
#        80873
#        90548
#        103798
#        116389
#        129926
#        144515
#        158547
#        172080
#        183793
#        201220
#        213204
#        226500
#
# Disc length: 3178 seconds
#
# Revision: 0
# Processed by: cddbd v1.5PL3 Copyright (c) Steve Scherf et al.
# Submitted via: ExactAudioCopy v0.90a11
#
DISCID=040c6813
DTITLE=FREDDY FENDER - Crazy Cajun Recordings CD 1
DYEAR=1900
DGENRE=
TTITLE0=The Chokin' Kind
TTITLE1=Come Back Home
TTITLE2=Laughing But Crying
TTITLE3=The Clock
TTITLE4=Tell It Like It Is
TTITLE5=When It Rains It Pours
TTITLE6=It'S Raining
TTITLE7=My Tears Are Falling Tonight
TTITLE8=Trapped By A Thing Called Love
TTITLE9=Share Your Love
TTITLE10=Keep It A Secret
TTITLE11=Roses Are Red
TTITLE12=I Might As Well Forget You
TTITLE13=Profundidad (I'M Asking Forgiveness)
TTITLE14=Living It Down
TTITLE15=Leave A Light In The Window
TTITLE16=Turn Around
TTITLE17=Only One
TTITLE18=You Made Me A Fool
EXTD=
EXTT0=
EXTT1=
EXTT2=
EXTT3=
EXTT4=
EXTT5=
EXTT6=
EXTT7=
EXTT8=
EXTT9=
EXTT10=
EXTT11=
EXTT12=
EXTT13=
EXTT14=
EXTT15=
EXTT16=
EXTT17=
EXTT18=
PLAYORDER=
